<?xml version="1.0" encoding="UTF-8" standalone="no"?>
<svg
   xmlns:dc="http://purl.org/dc/elements/1.1/"
   xmlns:cc="http://creativecommons.org/ns#"
   xmlns:rdf="http://www.w3.org/1999/02/22-rdf-syntax-ns#"
   xmlns:svg="http://www.w3.org/2000/svg"
   xmlns="http://www.w3.org/2000/svg"
   id="svg8"
   version="1.1"
   viewBox="0 0 210 210"
   height="210mm"
   width="210mm">
  <defs
     id="defs2" />
  <metadata
     id="metadata5">
    <rdf:RDF>
      <cc:Work
         rdf:about="">
        <dc:format>image/svg+xml</dc:format>
        <dc:type
           rdf:resource="http://purl.org/dc/dcmitype/StillImage" />
        <dc:title></dc:title>
      </cc:Work>
    </rdf:RDF>
  </metadata>
  <g
     transform="translate(0,-87)"
     id="layer1">
    <path
       style="stroke-width:9.33600616"
       id="path2-6"
       d="M 30.311835,98.63988 H 179.68817 c 10.31222,1.34e-4 18.67184,8.35991 18.67177,18.67213 v 149.37598 c 7e-5,10.31222 -8.35955,18.672 -18.67177,18.67213 H 30.311835 c -10.082887,0 -18.671778,-8.40258 -18.671778,-18.67213 V 117.31201 c -6.5e-5,-10.31222 8.359556,-18.672001 18.671778,-18.67213 m 0,18.67213 v 65.35192 H 78.997024 L 97.117901,199.88188 114.33589,182.66393 95.664113,164.33036 V 117.31201 H 30.311835 m 0,149.37598 H 95.664113 V 201.33606 H 30.311835 v 65.35193 m 149.376335,0 v -65.35193 h -65.35228 v 65.35193 h 65.35228 m 0,-149.37598 h -65.35228 v 65.35192 h 65.35228 z" />
    <path
       style="fill:#000000;stroke:#ffffff;stroke-width:5.73932743;stroke-opacity:1"
       id="path2"
       d="M 188.73129,253.57094 136.50358,201.343 c 5.16528,-13.20043 2.29566,-28.69674 -8.6091,-39.60128 -11.47873,-11.47871 -28.696714,-13.77437 -42.471082,-7.46112 l 24.679132,24.67914 -17.217965,17.21795 -25.252902,-24.67914 c -6.887196,13.77438 -4.017567,30.99238 7.460946,42.47087 10.904757,10.90478 26.401021,13.77444 39.601451,8.60912 l 52.22791,52.22794 c 2.29566,2.29566 5.73924,2.29566 8.0349,0 l 13.20065,-13.20042 c 2.86966,-2.29589 2.87076,-6.31346 0.57377,-8.03512 z" />
    <path
       id="path4530"
       d="m 154.75421,266.59212 25.05837,-26.36726 18.13434,16.80913 -23.08007,25.37849 -16.15605,-3.6255 z"
       style="fill:#000000;stroke:#000000;stroke-width:0.26906097px;stroke-linecap:butt;stroke-linejoin:miter;stroke-opacity:1" />
  </g>
</svg>
